<svg xmlns="http://www.w3.org/2000/svg" width="1200" height="630" viewBox="0 0 1200 630">
  <defs>
    <linearGradient id="bg" x1="0%" y1="0%" x2="100%" y2="100%">
      <stop offset="0%" stop-color="#0a1020"/>
      <stop offset="55%" stop-color="#070b14"/>
      <stop offset="100%" stop-color="#0d1528"/>
    </linearGradient>
    <linearGradient id="gold" x1="0%" y1="0%" x2="0%" y2="100%">
      <stop offset="0%" stop-color="#f0d060"/>
      <stop offset="100%" stop-color="#d4af37"/>
    </linearGradient>
    <linearGradient id="stripe" x1="0%" y1="0%" x2="100%" y2="0%">
      <stop offset="0%" stop-color="#003087"/>
      <stop offset="50%" stop-color="#d4af37"/>
      <stop offset="100%" stop-color="#d80621"/>
    </linearGradient>
    <pattern id="hex" width="48" height="42" patternUnits="userSpaceOnUse">
      <path d="M24 2 L44 13.5 L44 36.5 L24 48 L4 36.5 L4 13.5 Z" fill="none" stroke="rgba(212,175,55,0.07)" stroke-width="1"/>
    </pattern>
    <filter id="glow" x="-20%" y="-20%" width="140%" height="140%">
      <feGaussianBlur stdDeviation="12" result="blur"/>
      <feMerge>
        <feMergeNode in="blur"/>
        <feMergeNode in="SourceGraphic"/>
      </feMerge>
    </filter>
  </defs>

  <rect width="1200" height="630" fill="url(#bg)"/>
  <rect width="1200" height="630" fill="url(#hex)"/>
  <rect width="1200" height="8" fill="url(#stripe)"/>

  <circle cx="980" cy="120" r="180" fill="rgba(212,175,55,0.06)"/>
  <circle cx="180" cy="520" r="220" fill="rgba(0,48,135,0.12)"/>
  <circle cx="1050" cy="500" r="140" fill="rgba(216,6,33,0.08)"/>

  <g transform="translate(88, 148)">
    <rect x="0" y="0" width="88" height="88" rx="20" fill="rgba(255,255,255,0.06)" stroke="rgba(212,175,55,0.35)" stroke-width="2"/>
    <path d="M44 18l6.1 12.4 13.6 2-9.8 9.5 2.3 13.5L44 48.6l-12.2 6.4 2.3-13.5-9.8-9.5 13.6-2L44 18z" fill="url(#gold)" filter="url(#glow)"/>
    <text x="44" y="78" text-anchor="middle" fill="#d4af37" font-family="Arial, Helvetica, sans-serif" font-size="22" font-weight="800">26</text>
  </g>

  <text x="88" y="320" fill="url(#gold)" font-family="Arial Black, Arial, Helvetica, sans-serif" font-size="72" font-weight="900" letter-spacing="2">WIELKA LIGA TYPEROW</text>

  <text x="88" y="388" fill="rgba(255,255,255,0.92)" font-family="Arial, Helvetica, sans-serif" font-size="34" font-weight="600" letter-spacing="6">FIFA WORLD CUP 2026</text>

  <text x="88" y="452" fill="rgba(255,255,255,0.62)" font-family="Arial, Helvetica, sans-serif" font-size="28">Typuj wyniki - Sledz ranking - Rywalizuj ze znajomymi</text>

  <g transform="translate(88, 500)">
    <rect x="0" y="0" width="290" height="52" rx="26" fill="rgba(212,175,55,0.14)" stroke="rgba(212,175,55,0.45)" stroke-width="2"/>
    <text x="145" y="34" text-anchor="middle" fill="#f0d060" font-family="Arial, Helvetica, sans-serif" font-size="22" font-weight="700">liga-typerow.itur.app</text>
  </g>

  <text x="88" y="582" fill="rgba(255,255,255,0.35)" font-family="Arial, Helvetica, sans-serif" font-size="22" letter-spacing="4">USA - CAN - MEX - WE ARE 26</text>

  <g transform="translate(860, 220)" opacity="0.9">
    <rect x="0" y="0" width="250" height="300" rx="24" fill="rgba(255,255,255,0.04)" stroke="rgba(255,255,255,0.12)" stroke-width="2"/>
    <text x="125" y="48" text-anchor="middle" fill="#d4af37" font-family="Arial, Helvetica, sans-serif" font-size="20" font-weight="700">RANKING</text>
    <text x="36" y="92" fill="rgba(255,255,255,0.75)" font-family="Arial, Helvetica, sans-serif" font-size="24" font-weight="700">1.</text>
    <text x="68" y="92" fill="rgba(255,255,255,0.9)" font-family="Arial, Helvetica, sans-serif" font-size="24">Mateusz</text>
    <text x="190" y="92" text-anchor="end" fill="#d4af37" font-family="Arial, Helvetica, sans-serif" font-size="24" font-weight="700">127</text>
    <text x="36" y="136" fill="rgba(255,255,255,0.55)" font-family="Arial, Helvetica, sans-serif" font-size="24" font-weight="700">2.</text>
    <text x="68" y="136" fill="rgba(255,255,255,0.75)" font-family="Arial, Helvetica, sans-serif" font-size="24">Kuba</text>
    <text x="190" y="136" text-anchor="end" fill="rgba(255,255,255,0.75)" font-family="Arial, Helvetica, sans-serif" font-size="24">119</text>
    <text x="36" y="180" fill="rgba(255,255,255,0.55)" font-family="Arial, Helvetica, sans-serif" font-size="24" font-weight="700">3.</text>
    <text x="68" y="180" fill="rgba(255,255,255,0.75)" font-family="Arial, Helvetica, sans-serif" font-size="24">Ania</text>
    <text x="190" y="180" text-anchor="end" fill="rgba(255,255,255,0.75)" font-family="Arial, Helvetica, sans-serif" font-size="24">114</text>
    <line x1="24" y1="210" x2="226" y2="210" stroke="rgba(255,255,255,0.1)" stroke-width="2"/>
    <text x="125" y="252" text-anchor="middle" fill="rgba(255,255,255,0.45)" font-family="Arial, Helvetica, sans-serif" font-size="18">MEX 2:1 ZAF</text>
    <text x="125" y="286" text-anchor="middle" fill="rgba(255,255,255,0.45)" font-family="Arial, Helvetica, sans-serif" font-size="18">BRA 3:0 MAR</text>
  </g>
</svg>
